<?xml version="1.0" encoding="UTF-8"?>
<svg width="96px" height="96px" viewBox="0 0 96 96" version="1.1" xmlns="http://www.w3.org/2000/svg" xmlns:xlink="http://www.w3.org/1999/xlink">
    <title>tile_11</title>
    <g id="11" stroke="none" stroke-width="1" fill="none" fill-rule="evenodd">
        <path d="M96,32 L96,64 L0,64 L0,32 L96,32 Z M12,52 L4,52 L4,60 L12,60 L12,52 Z M28,52 L20,52 L20,60 L28,60 L28,52 Z M76,52 L68,52 L68,60 L76,60 L76,52 Z M92,52 L84,52 L84,60 L92,60 L92,52 Z M12,36 L4,36 L4,44 L12,44 L12,36 Z M28,36 L20,36 L20,44 L28,44 L28,36 Z M76,36 L68,36 L68,44 L76,44 L76,36 Z M92,36 L84,36 L84,44 L92,44 L92,36 Z" id="Combined-Shape" fill="#000000"></path>
        <rect id="Rectangle" fill="#000000" x="32" y="72" width="32" height="24"></rect>
        <rect id="Rectangle" fill="#000000" x="32" y="40" width="8" height="8"></rect>
        <path d="M60,24 L60,72 L52,72 L52,24 L60,24 Z M44,72 L36,72 L36,24 L44,24 L44,72 Z" id="Combined-Shape" fill="#000000"></path>
        <rect id="Rectangle" fill="#000000" x="32" y="0" width="32" height="24"></rect>
    </g>
</svg>