<?xml version="1.0" encoding="UTF-8"?>
<svg width="96px" height="96px" viewBox="0 0 96 96" version="1.1" xmlns="http://www.w3.org/2000/svg" xmlns:xlink="http://www.w3.org/1999/xlink">
    <title>tile_13</title>
    <g id="13" stroke="none" stroke-width="1" fill="none" fill-rule="evenodd">
        <g id="server" transform="translate(16, 20)" fill="#000000" fill-rule="nonzero">
            <path d="M64,0 L0,0 L0,24 L64,24 L64,0 Z M43,9 C44.6568542,9 46,10.3431458 46,12 C46,13.6568542 44.6568542,15 43,15 C41.3431458,15 40,13.6568542 40,12 C40,10.3431458 41.3431458,9 43,9 Z M49,12 C49,10.3431458 50.3431458,9 52,9 C53.6568542,9 55,10.3431458 55,12 C55,13.6568542 53.6568542,15 52,15 C50.3431458,15 49,13.6568542 49,12 Z M64,24 L0,24 L0,56 L64,56 L64,24 Z M43,41 C44.6568542,41 46,42.3431458 46,44 C46,45.6568542 44.6568542,47 43,47 C41.3431458,47 40,45.6568542 40,44 C40,42.3431458 41.3431458,41 43,41 Z M50,44 C50,42.3431458 51.3431458,41 53,41 C54.6568542,41 56,42.3431458 56,44 C56,45.6568542 54.6568542,47 53,47 C51.3431458,47 50,45.6568542 50,44 L50,44 Z" id="Shape"></path>
        </g>
        <rect id="Rectangle" fill="#000000" x="32" y="0" width="32" height="20"></rect>
        <rect id="Rectangle" fill="#000000" x="32" y="76" width="32" height="20"></rect>
    </g>
</svg>