<?xml version="1.0" encoding="UTF-8"?>
<svg width="96px" height="96px" viewBox="0 0 96 96" version="1.1" xmlns="http://www.w3.org/2000/svg" xmlns:xlink="http://www.w3.org/1999/xlink">
    <title>tile_17</title>
    <g id="17" stroke="none" stroke-width="1" fill="none" fill-rule="evenodd">
        <polygon id="Rectangle" fill="#000000" points="32 0 64 0 64 23 32 28.1506305"></polygon>
        <rect id="Rectangle" fill="#000000" x="32" y="80" width="32" height="16"></rect>
        <g id="router" transform="translate(16, 20)" fill="#000000" fill-rule="nonzero">
            <path d="M39.1111111,5.33333333 C45.6444444,5.33333333 51.6111111,7.75555556 56.1555556,11.7666667 L59.6777778,7.76666667 C54.2,2.93333333 46.9888889,0 39.1111111,0 C31.2333333,0 24.0222222,2.93333333 18.5444444,7.76666667 L22.0666667,11.7666667 C26.6111111,7.75555556 32.5777778,5.33333333 39.1111111,5.33333333 Z M41.7777778,27.5555556 L41.7777778,24.8888889 L36.4444444,24.8888889 L36.4444444,27.5555556 L36.4444444,35.5555556 L0,35.5555556 L0,56.8888889 L64,56.8888889 L64,35.5555556 L41.7777778,35.5555556 L41.7777778,27.5555556 Z M14.2222222,42.6666667 L14.2222222,49.7777778 L7.11111111,49.7777778 L7.11111111,42.6666667 L14.2222222,42.6666667 Z M17.7777778,42.6666667 L24.8888889,42.6666667 L24.8888889,49.7777778 L17.7777778,49.7777778 L17.7777778,42.6666667 Z M30.7222222,20.7444444 C33.0111111,18.8888889 35.9333333,17.7777778 39.1111111,17.7777778 C42.2888889,17.7777778 45.2111111,18.8888889 47.5,20.7444444 L50.8555556,16.6 C47.6444444,14 43.5555556,12.4444444 39.1111111,12.4444444 C34.6666667,12.4444444 30.5777778,14 27.3666667,16.6 L30.7222222,20.7444444 Z" id="Shape"></path>
        </g>
    </g>
</svg>