<?xml version="1.0" encoding="UTF-8"?>
<svg width="96px" height="96px" viewBox="0 0 96 96" version="1.1" xmlns="http://www.w3.org/2000/svg" xmlns:xlink="http://www.w3.org/1999/xlink">
    <title>tile_16</title>
    <g id="16" stroke="none" stroke-width="1" fill="none" fill-rule="evenodd">
        <path d="M88,34 L80,34 L80,34 L80,30 L89,30 C91.7614237,30 94,32.2385763 94,35 L94,46 L94,46 L96.0402644,46 L96.0402644,50 L94,50 L94,61 C94,63.7614237 91.7614237,66 89,66 L80,66 L80,66 L80,62 L88,62 C89.1045695,62 90,61.1045695 90,60 L90,36 C90,34.8954305 89.1045695,34 88,34 Z" id="Rectangle" fill="#000000"></path>
        <path d="M7.54026442,34 L0,34 L0,34 L0,30 L9.02766596,30 C11.7890897,30 14.027666,32.2385763 14.027666,35 C14.027666,35.0041942 14.0276607,35.0083884 14.0276501,35.0125826 L14,46 L14,46 L16.0402644,46 L16.0402644,50 L14,50 L14,61 C14,63.7614237 11.7614237,66 9,66 L0,66 L0,66 L0,62.0702085 L7.55774574,62.0173595 C8.93160203,62.0077525 10.0402644,60.8913105 10.0402644,59.5174206 L10.0402644,36.5 C10.0402644,35.1192881 8.9209763,34 7.54026442,34 Z" id="Rectangle" fill="#000000" transform="translate(8.0201, 48) scale(-1, 1) translate(-8.0201, -48)"></path>
        <g id="server" transform="translate(16, 20)" fill="#000000" fill-rule="nonzero">
            <path d="M64,0 L0,0 L0,24 L64,24 L64,0 Z M43,9 C44.6568542,9 46,10.3431458 46,12 C46,13.6568542 44.6568542,15 43,15 C41.3431458,15 40,13.6568542 40,12 C40,10.3431458 41.3431458,9 43,9 Z M49,12 C49,10.3431458 50.3431458,9 52,9 C53.6568542,9 55,10.3431458 55,12 C55,13.6568542 53.6568542,15 52,15 C50.3431458,15 49,13.6568542 49,12 Z M64,20 L0,20 L0,56 L64,56 L64,20 Z M43,41 C44.6568542,41 46,42.3431458 46,44 C46,45.6568542 44.6568542,47 43,47 C41.3431458,47 40,45.6568542 40,44 C40,42.3431458 41.3431458,41 43,41 Z M50,44 C50,42.3431458 51.3431458,41 53,41 C54.6568542,41 56,42.3431458 56,44 C56,45.6568542 54.6568542,47 53,47 C51.3431458,47 50,45.6568542 50,44 L50,44 Z" id="Shape"></path>
        </g>
    </g>
</svg>