<?xml version="1.0" encoding="UTF-8"?>
<svg width="96px" height="96px" viewBox="0 0 96 96" version="1.1" xmlns="http://www.w3.org/2000/svg" xmlns:xlink="http://www.w3.org/1999/xlink">
    <title>tile_08</title>
    <g id="08" stroke="none" stroke-width="1" fill="none" fill-rule="evenodd">
        <path d="M48,32 C56.836556,32 64,39.163444 64,48 C64,56.1589629 57.8930309,62.8915668 50.0007904,63.8761139 L50,96 L46,96 L46.0002073,63.8762383 C38.7629383,62.9738595 33.0267091,57.2379214 32.1238861,50.0007904 L0,50 L0,46 L32.1237617,46.0002073 C33.1078658,38.1074838 39.8406933,32 48,32 Z M48,36 C41.372583,36 36,41.372583 36,48 C36,54.627417 41.372583,60 48,60 C54.627417,60 60,54.627417 60,48 C60,41.372583 54.627417,36 48,36 Z" id="Combined-Shape" fill="#000000"></path>
    </g>
</svg>